#!OML:ASF G:\JayActor3\Patient Classification 1\Patient 1\Session 6\male.ASF
:FULLY-SPECIFIED
:DEGREES
1438
root 11.1538 15.2181 -3.02428 37.8424 -55.7302 10.2994
lowerback 45.0832 -0.698552 12.4697
upperback 5.70094 4.72886 1.97338
thorax -13.6959 1.27122 -6.31203
lowerneck -3.52799 2.34567 3.37524
upperneck -30.4421 -2.73286 -21.7869
head -9.14199 -0.0941949 -8.31007
rclavicle 2.54444e-014 1.19271e-015
rhumerus 43.4684 -1.51831 -71.4704
rradius 44.1062
rwrist 26.7647
rhand -61.5572 28.9238
rfingers 7.12502
rthumb -33.633 2.05934
lclavicle 2.54444e-014 1.19271e-015
lhumerus -36.8453 3.7095 85.3248
lradius 91.9099
lwrist -10.127
lhand -55.7576 -37.1091
lfingers 7.12502
lthumb -28.1046 -9.19488
rfemur -93.7769 -10.0605 27.9348
rtibia 64.7312
rfoot -19.4553 -10.0904
rtoes 11.1376
lfemur -82.8558 -1.37827 -29.8202
ltibia 51.9669
lfoot -12.8006 -3.55066
ltoes 8.30016
1439
root 11.1495 15.2175 -3.02393 37.8633 -55.7361 10.3308
lowerback 45.252 -0.699088 12.4841
upperback 5.75054 4.74789 1.97964
thorax -13.6812 1.27877 -6.31912
lowerneck -3.46315 2.29705 3.34525
upperneck -30.588 -2.81272 -21.6897
head -9.22245 -0.130433 -8.2765
rclavicle 0 -9.14409e-015
rhumerus 43.6536 -1.56548 -71.44
rradius 43.9094
rwrist 26.9584
rhand -61.4968 28.6981
rfingers 7.12502
rthumb -33.5756 1.82112
lclavicle 0 -9.14409e-015
lhumerus -37.0526 3.77792 85.2331
lradius 91.9806
lwrist -10.1148
lhand -55.8094 -37.0545
lfingers 7.12502
lthumb -28.1541 -9.14837
rfemur -93.8097 -10.0167 27.8662
rtibia 64.7375
rfoot -19.4813 -10.1698
rtoes 11.0686
lfemur -82.8964 -1.41599 -29.797
ltibia 51.9743
lfoot -12.81 -3.48985
ltoes 8.20648
1440
root 11.143 15.2206 -3.02484 37.8682 -55.7746 10.3184
lowerback 45.5041 -0.675904 12.4569
upperback 5.79648 4.78781 1.99332
thorax -13.6964 1.29335 -6.308
lowerneck -3.40368 2.25028 3.31114
upperneck -30.7205 -2.8888 -21.5981
head -9.29645 -0.164648 -8.24308
rclavicle -2.8625e-014 -3.33958e-014
rhumerus 43.8365 -1.60601 -71.4129
rradius 43.7004
rwrist 27.1511
rhand -61.4166 28.5245
rfingers 7.12502
rthumb -33.4994 1.63098
lclavicle -2.8625e-014 -3.33958e-014
lhumerus -37.2637 3.85506 85.1291
lradius 92.0367
lwrist -10.0954
lhand -55.8538 -37.005
lfingers 7.12502
lthumb -28.1965 -9.1059
rfemur -93.746 -9.9294 27.7844
rtibia 64.7157
rfoot -19.519 -10.24
rtoes 11.0535
lfemur -82.8643 -1.39213 -29.7691
ltibia 51.968
lfoot -12.8421 -3.43371
ltoes 8.09802
1441
root 11.1352 15.2262 -3.02653 37.8654 -55.8268 10.2682
lowerback 45.8157 -0.64176 12.4115
upperback 5.83937 4.84088 2.01448
thorax -13.7321 1.31167 -6.28624
lowerneck -3.34998 2.20534 3.27811
upperneck -30.8417 -2.96191 -21.5141
head -9.36471 -0.19766 -8.21181
rclavicle -4.45278e-014 6.75868e-014
rhumerus 44.0186 -1.62893 -71.3767
rradius 43.4763
rwrist 27.316
rhand -61.3576 28.4224
rfingers 7.12502
rthumb -33.4433 1.51682
lclavicle -4.45278e-014 6.75868e-014
lhumerus -37.4715 3.93446 85.0163
lradius 92.0783
lwrist -10.0618
lhand -55.8849 -36.9895
lfingers 7.12502
lthumb -28.2262 -9.09526
rfemur -93.6123 -9.81717 27.7031
rtibia 64.6759
rfoot -19.5673 -10.301
rtoes 11.0626
lfemur -82.7771 -1.32881 -29.7283
ltibia 51.9505
lfoot -12.8905 -3.38316
ltoes 7.99344
1442
root 11.1262 15.2338 -3.02879 37.8435 -55.8853 10.1927
lowerback 46.1824 -0.603514 12.3549
upperback 5.88081 4.90085 2.04091
thorax -13.7846 1.3312 -6.25682
lowerneck -3.30531 2.16207 3.24712
upperneck -30.9526 -3.03049 -21.4311
head -9.42665 -0.229567 -8.18031
rclavicle -1.90833e-014 8.5875e-014
rhumerus 44.2036 -1.63215 -71.3275
rradius 43.2367
rwrist 27.4329
rhand -61.3288 28.4056
rfingers 7.12502
rthumb -33.4159 1.4941
lclavicle -1.90833e-014 8.5875e-014
lhumerus -37.6735 4.01749 84.8948
lradius 92.1017
lwrist -10.017
lhand -55.8866 -37.0423
lfingers 7.12502
lthumb -28.2279 -9.14844
rfemur -93.4168 -9.69138 27.6211
rtibia 64.6285
rfoot -19.6295 -10.3594
rtoes 11.0682
lfemur -82.6364 -1.23345 -29.6822
ltibia 51.9253
lfoot -12.9504 -3.35168
ltoes 7.91782
1443
root 11.1191 15.2384 -3.02972 37.8336 -55.9021 10.1503
lowerback 46.4783 -0.59433 12.3461
upperback 5.92193 4.93984 2.06648
thorax -13.8143 1.34252 -6.24136
lowerneck -3.25985 2.11791 3.2182
upperneck -31.0637 -3.10008 -21.3469
head -9.48897 -0.262396 -8.14853
rclavicle 4.45278e-014 -2.80286e-014
rhumerus 44.3916 -1.61646 -71.2532
rradius 42.9844
rwrist 27.4888
rhand -61.3433 28.4591
rfingers 7.12502
rthumb -33.4298 1.55057
lclavicle 4.45278e-014 -2.80286e-014
lhumerus -37.8656 4.09919 84.7769
lradius 92.1138
lwrist -9.96035
lhand -55.8859 -37.0854
lfingers 7.12502
lthumb -28.2272 -9.19136
rfemur -93.2952 -9.61398 27.5579
rtibia 64.6073
rfoot -19.6862 -10.4139
rtoes 11.0571
lfemur -82.5462 -1.19947 -29.6288
ltibia 51.908
lfoot -13.0018 -3.31919
ltoes 7.86121
1444
root 11.1147 15.2389 -3.02894 37.8363 -55.8692 10.159
lowerback 47.5078 -0.801479 12.5663
upperback 4.98246 4.97793 1.70721
thorax -13.671 1.3593 -6.18159
lowerneck -3.20892 2.07355 3.19023
upperneck -31.1848 -3.16965 -21.2548
head -9.55615 -0.29549 -8.11464
rclavicle 3.81667e-014 -2.36554e-014
rhumerus 44.5889 -1.59309 -71.1641
rradius 42.7178
rwrist 27.5131
rhand -61.3799 28.5654
rfingers 7.12502
rthumb -33.4645 1.66433
lclavicle 3.81667e-014 -2.36554e-014
lhumerus -38.0439 4.17647 84.6649
lradius 92.1199
lwrist -9.88412
lhand -55.8849 -37.1812
lfingers 7.12502
lthumb -28.2263 -9.28701
rfemur -93.2803 -9.59865 27.5125
rtibia 64.6279
rfoot -19.7341 -10.4645
rtoes 11.0245
lfemur -82.5319 -1.24225 -29.5783
ltibia 51.908
lfoot -13.0374 -3.29421
ltoes 7.86492
1445
root 11.1136 15.234 -3.02606 37.8601 -55.7796 10.2337
lowerback 47.581 -0.875422 12.6853
upperback 5.02315 4.95236 1.71727
thorax -13.6261 1.34724 -6.20745
lowerneck -3.14801 2.0282 3.15488
upperneck -31.3224 -3.24032 -21.1482
head -9.63179 -0.328547 -8.07495
rclavicle 6.36111e-015 -7.27552e-014
rhumerus 44.7948 -1.56807 -71.0598
rradius 42.4426
rwrist 27.5255
rhand -61.4246 28.6829
rfingers 7.12502
rthumb -33.507 1.79109
lclavicle 6.36111e-015 -7.27552e-014
lhumerus -38.212 4.25396 84.5629
lradius 92.1221
lwrist -9.79238
lhand -55.8813 -37.3219
lfingers 7.12502
lthumb -28.2228 -9.42716
rfemur -93.4083 -9.65665 27.4859
rtibia 64.7019
rfoot -19.7709 -10.5071
rtoes 10.9813
lfemur -82.6239 -1.3831 -29.5312
ltibia 51.934
lfoot -13.0516 -3.26592
ltoes 7.91072
1446
root 11.1147 15.2253 -3.02192 37.8898 -55.656 10.3569
lowerback 47.5712 -0.975509 12.8427
upperback 5.06844 4.90335 1.72285
thorax -13.5582 1.32688 -6.24618
lowerneck -3.06453 1.98362 3.10624
upperneck -31.4877 -3.30964 -21.0196
head -9.72236 -0.35914 -8.02664
rclavicle -6.36111e-015 7.79236e-014
rhumerus 45.0071 -1.54432 -70.9452
rradius 42.1586
rwrist 27.5382
rhand -61.463 28.7814
rfingers 7.12502
rthumb -33.5434 1.89749
lclavicle -6.36111e-015 7.79236e-014
lhumerus -38.3724 4.32977 84.4694
lradius 92.1274
lwrist -9.69159
lhand -55.8786 -37.4805
lfingers 7.12502
lthumb -28.2202 -9.58534
rfemur -93.6299 -9.76328 27.4688
rtibia 64.8148
rfoot -19.7984 -10.5463
rtoes 10.928
lfemur -82.786 -1.57961 -29.5008
ltibia 51.9815
lfoot -13.0461 -3.24638
ltoes 7.97893
1447
root 11.1173 15.2138 -3.01711 37.9243 -55.5142 10.5095
lowerback 47.5087 -1.08801 13.0186
upperback 5.11661 4.84152 1.727
thorax -13.4765 1.30232 -6.28998
lowerneck -2.97197 1.94082 3.03588
upperneck -31.6705 -3.37393 -20.8675
head -9.82082 -0.385749 -7.96645
rclavicle 3.18055e-015 1.74931e-014
rhumerus 45.2254 -1.52793 -70.8251
rradius 41.8686
rwrist 27.5853
rhand -61.49 28.8006
rfingers 7.12502
rthumb -33.5692 1.92227
lclavicle 3.18055e-015 1.74931e-014
lhumerus -38.528 4.40419 84.3832
lradius 92.1355
lwrist -9.58984
lhand -55.8787 -37.6489
lfingers 7.12502
lthumb -28.2203 -9.75372
rfemur -93.9117 -9.89791 27.4558
rtibia 64.9495
rfoot -19.82 -10.5784
rtoes 10.8976
lfemur -82.996 -1.80853 -29.4819
ltibia 52.0448
lfoot -13.0251 -3.22722
ltoes 8.04303
1448
root 11.1182 15.2047 -3.01358 37.9221 -55.4065 10.6395
lowerback 47.5337 -1.17801 13.1483
upperback 5.1598 4.79589 1.7341
thorax -13.4209 1.28336 -6.31563
lowerneck -2.8797 1.9022 2.94669
upperneck -31.8632 -3.42921 -20.6974
head -9.92186 -0.407106 -7.89651
rclavicle 5.08889e-014 -3.37934e-015
rhumerus 45.4472 -1.51553 -70.7025
rradius 41.5763
rwrist 27.6504
rhand -61.5015 28.7978
rfingers 7.12502
rthumb -33.5801 1.92182
lclavicle 5.08889e-014 -3.37934e-015
lhumerus -38.6826 4.4822 84.2951
lradius 92.1006
lwrist -9.61606
lhand -55.9867 -38.1774
lfingers 7.12502
lthumb -28.3236 -10.2994
rfemur -94.113 -9.99919 27.4242
rtibia 65.0723
rfoot -19.8556 -10.6074
rtoes 10.8992
lfemur -83.1437 -1.97205 -29.4882
ltibia 52.1086
lfoot -13.0062 -3.23214
ltoes 8.0805
